<svg width="46" height="46" viewBox="0 0 46 46" fill="none" xmlns="http://www.w3.org/2000/svg">
<path d="M20.6999 10.7812H25.2999C25.7312 10.7812 26.1624 11.0688 26.1624 11.6438V12.5062C26.1624 12.9375 25.8749 13.3688 25.2999 13.3688H20.6999C20.2687 13.3688 19.8374 13.0812 19.8374 12.5062V11.6438C19.8374 11.2125 20.1249 10.7812 20.6999 10.7812Z" stroke="#F3EDE2" stroke-width="2" stroke-linecap="round" stroke-linejoin="round"/>
<path d="M20.125 32.7734H3.73755V19.1172H20.125C18.1125 20.6984 16.8188 23.1422 16.8188 25.8734C16.8188 28.6047 18.1125 31.0484 20.125 32.6297V32.7734Z" stroke="#F3EDE2" stroke-width="0.8" stroke-linecap="round" stroke-linejoin="round"/>
<path d="M42.2625 19.1172V32.7734H30.9062C32.9187 31.1922 34.2125 28.7484 34.2125 26.0172C34.2125 23.2859 32.9187 20.8422 30.9062 19.2609H42.2625V19.1172Z" stroke="#F3EDE2" stroke-width="0.8" stroke-linecap="round" stroke-linejoin="round"/>
<path d="M35.65 11.6445H36.5125C37.0875 11.6445 37.375 12.0758 37.375 12.507V14.3758H34.6438V12.507C34.6438 11.932 35.075 11.6445 35.5063 11.6445H35.65Z" stroke="#F3EDE2" stroke-width="2" stroke-linecap="round" stroke-linejoin="round"/>
<path d="M20.125 19.1172H3.73755" stroke="#F3EDE2" stroke-width="2" stroke-linecap="round" stroke-linejoin="round"/>
<path d="M42.2625 19.1172H30.9062" stroke="#F3EDE2" stroke-width="2" stroke-linecap="round" stroke-linejoin="round"/>
<path d="M20.125 32.7734H3.73755" stroke="#F3EDE2" stroke-width="2" stroke-linecap="round" stroke-linejoin="round"/>
<path d="M42.2625 32.7734H30.9062" stroke="#F3EDE2" stroke-width="2" stroke-linecap="round" stroke-linejoin="round"/>
<path d="M34.2124 26.0195C34.2124 28.7508 32.9187 31.1945 30.9062 32.7758C29.4687 33.9258 27.5999 34.6445 25.5874 34.6445C23.5749 34.6445 21.7062 33.9258 20.2687 32.7758C18.2562 31.1945 16.9624 28.7508 16.9624 26.0195C16.9624 23.2883 18.2562 20.8445 20.2687 19.2633C21.7062 18.1133 23.5749 17.3945 25.5874 17.3945C27.5999 17.3945 29.4687 18.1133 30.9062 19.2633C32.9187 20.8445 34.2124 23.2883 34.2124 26.0195Z" stroke="#F3EDE2" stroke-width="0.8" stroke-linecap="round" stroke-linejoin="round"/>
<path d="M31.1937 25.8758C31.1937 29.0383 28.6062 31.482 25.5875 31.482C22.5687 31.482 19.9812 28.8945 19.9812 25.8758C19.9812 22.857 22.5687 20.2695 25.5875 20.2695C28.6062 20.2695 31.1937 22.857 31.1937 25.8758Z" stroke="#F3EDE2" stroke-width="2" stroke-linecap="round" stroke-linejoin="round"/>
<path d="M40.5375 14.3734H32.4875C31.9125 14.3734 31.3375 14.0859 31.05 13.5109L28.8938 9.48594C28.75 9.19844 28.4625 9.05469 28.0313 9.05469H17.9688C17.6813 9.05469 17.25 9.19844 17.1063 9.48594L14.95 13.5109C14.6625 14.0859 14.0875 14.3734 13.5125 14.3734H5.46255C4.60005 14.3734 3.73755 15.0922 3.73755 16.0984V35.2172C3.73755 36.0797 4.4563 36.9422 5.46255 36.9422H40.5375C41.4 36.9422 42.2625 36.2234 42.2625 35.2172V16.0984C42.2625 15.2359 41.5438 14.3734 40.5375 14.3734ZM34.2125 25.8734C34.2125 28.6047 32.9188 31.0484 30.9063 32.6297C29.4688 33.7797 27.6 34.4984 25.5875 34.4984C23.575 34.4984 21.7063 33.7797 20.2688 32.6297C18.2563 31.0484 16.9625 28.6047 16.9625 25.8734C16.9625 23.1422 18.2563 20.6984 20.2688 19.1172C21.7063 17.9672 23.575 17.2484 25.5875 17.2484C27.6 17.2484 29.4688 17.9672 30.9063 19.1172C32.9188 20.6984 34.2125 23.1422 34.2125 25.8734Z" stroke="#F3EDE2" stroke-width="2" stroke-linecap="round" stroke-linejoin="round"/>
</svg>
