<svg width="64" height="64" viewBox="0 0 64 64" fill="none" xmlns="http://www.w3.org/2000/svg">
<path d="M28.8 15H35.2C35.8 15 36.4 15.4 36.4 16.2V17.4C36.4 18 36 18.6 35.2 18.6H28.8C28.2 18.6 27.6 18.2 27.6 17.4V16.2C27.6 15.6 28 15 28.8 15Z" stroke="#F3EDE2" stroke-width="2" stroke-linecap="round" stroke-linejoin="round"/>
<path d="M28 45.5996H5.19995V26.5996H28C25.2 28.7996 23.4 32.1996 23.4 35.9996C23.4 39.7996 25.2 43.1996 28 45.3996V45.5996Z" stroke="#F3EDE2" stroke-width="0.8" stroke-linecap="round" stroke-linejoin="round"/>
<path d="M58.8 26.5996V45.5996H43C45.8 43.3996 47.6 39.9996 47.6 36.1996C47.6 32.3996 45.8 28.9996 43 26.7996H58.8V26.5996Z" stroke="#F3EDE2" stroke-width="0.8" stroke-linecap="round" stroke-linejoin="round"/>
<path d="M49.5999 16.2002H50.7999C51.5999 16.2002 52 16.8002 52 17.4002V20.0002H48.2V17.4002C48.2 16.6002 48.8 16.2002 49.4 16.2002H49.5999Z" stroke="#F3EDE2" stroke-width="2" stroke-linecap="round" stroke-linejoin="round"/>
<path d="M28 26.5996H5.19995" stroke="#F3EDE2" stroke-width="2" stroke-linecap="round" stroke-linejoin="round"/>
<path d="M58.8 26.5996H43" stroke="#F3EDE2" stroke-width="2" stroke-linecap="round" stroke-linejoin="round"/>
<path d="M28 45.5996H5.19995" stroke="#F3EDE2" stroke-width="2" stroke-linecap="round" stroke-linejoin="round"/>
<path d="M58.8 45.5996H43" stroke="#F3EDE2" stroke-width="2" stroke-linecap="round" stroke-linejoin="round"/>
<path d="M47.6 36.2002C47.6 40.0002 45.8 43.4002 43 45.6002C41 47.2002 38.4 48.2002 35.6 48.2002C32.8 48.2002 30.2 47.2002 28.2 45.6002C25.4 43.4002 23.6 40.0002 23.6 36.2002C23.6 32.4002 25.4 29.0002 28.2 26.8002C30.2 25.2002 32.8 24.2002 35.6 24.2002C38.4 24.2002 41 25.2002 43 26.8002C45.8 29.0002 47.6 32.4002 47.6 36.2002Z" stroke="#F3EDE2" stroke-width="0.8" stroke-linecap="round" stroke-linejoin="round"/>
<path d="M43.4001 36.0002C43.4001 40.4002 39.8 43.8002 35.6 43.8002C31.4 43.8002 27.8 40.2002 27.8 36.0002C27.8 31.8002 31.4 28.2002 35.6 28.2002C39.8 28.2002 43.4001 31.8002 43.4001 36.0002Z" stroke="#F3EDE2" stroke-width="2" stroke-linecap="round" stroke-linejoin="round"/>
<path d="M56.4 19.9996H45.2C44.4 19.9996 43.6 19.5996 43.2 18.7996L40.2 13.1996C40 12.7996 39.6 12.5996 39 12.5996H25C24.6 12.5996 23.9999 12.7996 23.7999 13.1996L20.8 18.7996C20.4 19.5996 19.6 19.9996 18.8 19.9996H7.59995C6.39995 19.9996 5.19995 20.9996 5.19995 22.3996V48.9996C5.19995 50.1996 6.19995 51.3996 7.59995 51.3996H56.4C57.6 51.3996 58.7999 50.3996 58.7999 48.9996V22.3996C58.7999 21.1996 57.8 19.9996 56.4 19.9996ZM47.5999 35.9996C47.5999 39.7996 45.8 43.1996 43 45.3996C41 46.9996 38.3999 47.9996 35.5999 47.9996C32.7999 47.9996 30.2 46.9996 28.2 45.3996C25.4 43.1996 23.6 39.7996 23.6 35.9996C23.6 32.1996 25.4 28.7996 28.2 26.5996C30.2 24.9996 32.7999 23.9996 35.5999 23.9996C38.3999 23.9996 41 24.9996 43 26.5996C45.8 28.7996 47.5999 32.1996 47.5999 35.9996Z" stroke="#F3EDE2" stroke-width="2" stroke-linecap="round" stroke-linejoin="round"/>
</svg>
