<svg width="64" height="64" viewBox="0 0 64 64" fill="none" xmlns="http://www.w3.org/2000/svg">
<path d="M48.3 46.8998L37.7 36.4998H36.1L36 35.6998L39.7 31.9998C42.1 32.9998 44.9 32.5998 46.8 30.6998C48.6 28.8998 49.1 26.2998 48.3 24.0998L45.1 27.2998C44 28.3998 42.2 28.3998 41.2 27.2998C40.1 26.1998 40.1 24.4998 41.2 23.3998L44.4 20.1998C42.2 19.3998 39.6 19.9998 37.8 21.6998C35.9 23.5998 35.5 26.4998 36.5 28.7998L31.6 33.6998L19.7 22.3998V21.3998C19.6 21.3998 17.9 19.7998 17.9 19.7998L15 22.7998L16.7 24.3998H17.6L29.1 36.1998L23.3 41.9998C21.2 41.0998 18.7 41.5998 16.9 43.2998C14.6 45.5998 14.6 49.2998 16.9 51.4998C19.2 53.7998 22.9 53.7998 25.2 51.4998C26.9 49.7998 27.3 47.2998 26.5 45.1998L31.2 40.4998H32.1L32.2 42.1998L42.8 52.5998C44 53.7998 46.2 53.3998 47.7 51.8998C49.2 50.2998 49.5 48.0998 48.3 46.9998V46.8998Z" stroke="#F3EDE2" stroke-width="2" stroke-linecap="round" stroke-linejoin="round"/>
<path d="M54.1 15.5H9.9C8.29837 15.5 7 16.7984 7 18.4V54.6C7 56.2016 8.29837 57.5 9.9 57.5H54.1C55.7016 57.5 57 56.2016 57 54.6V18.4C57 16.7984 55.7016 15.5 54.1 15.5Z" stroke="#F3EDE2" stroke-width="2" stroke-linecap="round" stroke-linejoin="round"/>
<path d="M20 15.5V8.4C20 7.3 20.9 6.5 21.9 6.5H42C43.1 6.5 43.9 7.4 43.9 8.4V15.5" stroke="#F3EDE2" stroke-width="2" stroke-linecap="round" stroke-linejoin="round"/>
</svg>
