<svg width="46" height="46" viewBox="0 0 46 46" fill="none" xmlns="http://www.w3.org/2000/svg">
<path d="M7.9402 11.411C7.45475 12.8599 7.9402 15.2747 8.91112 17.8103C11.217 24.3304 15.3434 30.0053 20.4407 34.5935C23.2321 37.1291 26.2662 39.3024 28.3294 39.1817C30.0285 39.1817 33.3053 34.7142 33.3053 34.7142L27.8439 29.5223C27.1157 28.9186 26.1448 28.6771 25.2953 28.9186L22.6253 29.7638L15.1007 19.2592L17.0425 16.6029C17.528 15.8784 17.6493 14.9125 17.2852 14.0673L14.2511 7.66797C14.2511 7.66797 8.66839 9.72059 8.06157 11.411H7.9402Z" stroke="#F3EDE2" stroke-width="2" stroke-linecap="round" stroke-linejoin="round"/>
<path d="M27.2192 6.67578C30.5061 7.77141 33.4278 9.96267 35.4973 13.0061C37.5669 16.0495 38.419 19.5799 38.1755 23.1102" stroke="#F3EDE2" stroke-width="2" stroke-linecap="round" stroke-linejoin="round"/>
<path d="M26.002 10.207C28.5584 11.0592 30.7497 12.7635 32.454 15.0765C34.0366 17.5112 34.6453 20.1894 34.5235 22.8676" stroke="#F3EDE2" stroke-width="2" stroke-linecap="round" stroke-linejoin="round"/>
<path d="M23.689 17.1445C24.7846 17.5097 25.6368 18.1184 26.2454 19.0923C26.8541 20.0662 27.2193 21.1618 27.0976 22.2575" stroke="#F3EDE2" stroke-width="2" stroke-linecap="round" stroke-linejoin="round"/>
<path d="M24.9062 13.7363C26.7323 14.345 28.3149 15.4406 29.4105 17.145C30.5061 18.8493 30.9931 20.7971 30.8713 22.6231" stroke="#F3EDE2" stroke-width="2" stroke-linecap="round" stroke-linejoin="round"/>
</svg>
