<svg width="64" height="64" viewBox="0 0 64 64" fill="none" xmlns="http://www.w3.org/2000/svg">
<path d="M11.0472 15.8747C10.3718 17.8905 11.0472 21.2503 12.398 24.7781C15.6063 33.8495 21.3473 41.745 28.4392 48.1286C32.3229 51.6563 36.5442 54.6802 39.4147 54.5122C41.7787 54.5122 46.3378 48.2966 46.3378 48.2966L38.7393 41.073C37.7262 40.2331 36.3754 39.8971 35.1934 40.2331L31.4786 41.409L21.0096 26.794L23.7113 23.0982C24.3867 22.0903 24.5556 20.7463 24.049 19.5704L19.8276 10.667C19.8276 10.667 12.0603 13.5228 11.2161 15.8747H11.0472Z" stroke="#F3EDE2" stroke-width="2" stroke-linecap="round" stroke-linejoin="round"/>
<path d="M37.8705 9.29004C42.4436 10.8144 46.5086 13.8631 49.3879 18.0974C52.2672 22.3317 53.4528 27.2436 53.1141 32.1554" stroke="#F3EDE2" stroke-width="2" stroke-linecap="round" stroke-linejoin="round"/>
<path d="M36.1768 14.2012C39.7336 15.3868 42.7823 17.758 45.1535 20.9761C47.3554 24.3635 48.2022 28.0897 48.0329 31.8159" stroke="#F3EDE2" stroke-width="2" stroke-linecap="round" stroke-linejoin="round"/>
<path d="M32.9587 23.8564C34.4831 24.3646 35.6687 25.2114 36.5156 26.5664C37.3624 27.9214 37.8705 29.4457 37.7012 30.9701" stroke="#F3EDE2" stroke-width="2" stroke-linecap="round" stroke-linejoin="round"/>
<path d="M34.6525 19.1133C37.1931 19.9601 39.3949 21.4845 40.9193 23.8557C42.4436 26.2269 43.1211 28.9369 42.9517 31.4775" stroke="#F3EDE2" stroke-width="2" stroke-linecap="round" stroke-linejoin="round"/>
</svg>
