<svg width="46" height="46" viewBox="0 0 46 46" fill="none" xmlns="http://www.w3.org/2000/svg">
<path d="M34.7156 33.7086L27.0969 26.2336H25.9469L25.875 25.6586L28.5344 22.9992C30.2594 23.718 32.2719 23.4305 33.6375 22.0648C34.9312 20.7711 35.2906 18.9023 34.7156 17.3211L32.4156 19.6211C31.625 20.4117 30.3313 20.4117 29.6125 19.6211C28.8219 18.8305 28.8219 17.6086 29.6125 16.818L31.9125 14.518C30.3313 13.943 28.4625 14.3742 27.1687 15.5961C25.8031 16.9617 25.5156 19.0461 26.2344 20.6992L22.7125 24.2211L14.1594 16.0992V15.3805C14.0875 15.3805 12.8656 14.2305 12.8656 14.2305L10.7812 16.3867L12.0031 17.5367H12.65L20.9156 26.018L16.7469 30.1867C15.2375 29.5398 13.4406 29.8992 12.1469 31.1211C10.4937 32.7742 10.4937 35.4336 12.1469 37.0148C13.8 38.668 16.4594 38.668 18.1125 37.0148C19.3344 35.793 19.6219 33.9961 19.0469 32.4867L22.425 29.1086H23.0719L23.1438 30.3305L30.7625 37.8055C31.625 38.668 33.2063 38.3805 34.2844 37.3023C35.3625 36.1523 35.5781 34.5711 34.7156 33.7805V33.7086Z" stroke="#F3EDE2" stroke-width="2" stroke-linecap="round" stroke-linejoin="round"/>
<path d="M38.8844 11.1406H7.11562C5.96446 11.1406 5.03125 12.0738 5.03125 13.225V39.2437C5.03125 40.3949 5.96446 41.3281 7.11562 41.3281H38.8844C40.0355 41.3281 40.9688 40.3949 40.9688 39.2437V13.225C40.9688 12.0738 40.0355 11.1406 38.8844 11.1406Z" stroke="#F3EDE2" stroke-width="2" stroke-linecap="round" stroke-linejoin="round"/>
<path d="M14.375 11.1406V6.0375C14.375 5.24687 15.0219 4.67188 15.7406 4.67188H30.1875C30.9781 4.67188 31.5531 5.31875 31.5531 6.0375V11.1406" stroke="#F3EDE2" stroke-width="2" stroke-linecap="round" stroke-linejoin="round"/>
</svg>
