<svg width="192" height="45" viewBox="0 0 192 45" fill="none" xmlns="http://www.w3.org/2000/svg">
<rect width="192" height="44" transform="translate(0 0.5)" fill="#2E5E4E"/>
<rect y="0.5" width="44" height="44" rx="7" fill="white"/>
<path d="M21.5923 5.0625C22.0812 5.38842 25.667 8.48438 25.7486 11.6621C25.8301 14.8399 23.1407 15.9809 22.4888 15.8994C22.4888 15.0846 22.7333 12.8027 21.9185 12.8027H21.8375C21.5115 12.8027 21.0716 13.2268 21.2672 15.8994C17.9264 15.0031 18.0894 12.319 18.0894 11.6621C18.0894 11.1297 18.2795 9.70607 19.8004 7.99512C20.9398 6.71312 21.591 5.14682 21.5923 5.0625Z" fill="#B08D57"/>
<rect x="16.7961" y="18.2734" width="10.2444" height="21.163" rx="1.5" fill="white" stroke="black"/>
<path d="M74.7361 33.0257H70.3928L70.1373 25.3869C70.0616 23.1566 70.0237 21.5117 70.0237 20.4523C70.0237 19.1513 70.0426 18.1942 70.0805 17.5808L67.4972 30.9905H63.239L60.5137 17.5808C60.5894 18.9934 60.6273 20.4895 60.6273 22.0693C60.6273 22.7756 60.6083 23.9093 60.5705 25.4705L60.315 33.0257H56L57.3059 13.7057H62.9835L65.4532 26.8645L67.7243 13.7057H73.4303L74.7361 33.0257Z" fill="#F3EEE3"/>
<path d="M89.2915 25.3311C89.2915 25.9259 89.2631 26.4463 89.2063 26.8923H80.8034C80.917 28.1934 81.2103 29.0948 81.6835 29.5966C82.1566 30.0984 82.8284 30.3493 83.699 30.3493C84.2668 30.3493 84.8061 30.2471 85.3171 30.0426C85.8281 29.8382 86.3864 29.5222 86.992 29.0948L88.7805 31.4645C87.2286 32.8212 85.4212 33.4996 83.3584 33.4996C81.0873 33.4996 79.3556 32.8119 78.1633 31.4366C76.99 30.0426 76.4033 28.1283 76.4033 25.6936C76.4033 23.3146 76.971 21.4002 78.1066 19.9505C79.2421 18.4822 80.8413 17.7481 82.9041 17.7481C84.8913 17.7481 86.4527 18.4079 87.5882 19.7275C88.7237 21.0285 89.2915 22.8964 89.2915 25.3311ZM85.0049 24.1045C85.0049 22.9336 84.844 22.06 84.5223 21.4839C84.2195 20.8891 83.699 20.5917 82.9609 20.5917C82.2985 20.5917 81.7875 20.8705 81.428 21.4281C81.0684 21.9671 80.8507 22.9243 80.775 24.2996H85.0049V24.1045Z" fill="#F3EEE3"/>
<path d="M106.689 17.7481C107.767 17.7481 108.629 18.1384 109.272 18.919C109.934 19.6996 110.266 20.7497 110.266 22.0693V33.0257H105.951V22.6269C105.951 21.5117 105.61 20.9542 104.929 20.9542C104.266 20.9542 103.632 21.5396 103.027 22.7105V33.0257H98.7116V22.6269C98.7116 21.5117 98.3805 20.9542 97.7181 20.9542C97.3396 20.9542 96.9989 21.1028 96.6961 21.4002C96.3933 21.6976 96.0905 22.1344 95.7877 22.7105V33.0257H91.4443V18.222H95.2767L95.5606 19.9784C96.6015 18.4915 97.9073 17.7481 99.4781 17.7481C100.235 17.7481 100.888 17.9525 101.437 18.3614C101.986 18.7517 102.393 19.3279 102.658 20.0899C103.206 19.3093 103.803 18.7239 104.446 18.3336C105.108 17.9433 105.856 17.7481 106.689 17.7481Z" fill="#F3EEE3"/>
<path d="M119.199 17.7481C121.319 17.7481 122.975 18.4265 124.167 19.7833C125.378 21.1214 125.984 23.0729 125.984 25.6378C125.984 28.0911 125.378 30.0148 124.167 31.4087C122.956 32.8026 121.3 33.4996 119.199 33.4996C117.08 33.4996 115.424 32.8212 114.231 31.4645C113.039 30.1077 112.443 28.1562 112.443 25.6099C112.443 23.138 113.039 21.2144 114.231 19.839C115.443 18.4451 117.098 17.7481 119.199 17.7481ZM119.199 20.9263C118.423 20.9263 117.855 21.2887 117.496 22.0136C117.136 22.7384 116.957 23.9372 116.957 25.6099C116.957 27.3198 117.136 28.5372 117.496 29.262C117.855 29.9869 118.423 30.3493 119.199 30.3493C119.975 30.3493 120.543 29.9869 120.902 29.262C121.281 28.5186 121.47 27.3105 121.47 25.6378C121.47 23.9279 121.29 22.7198 120.931 22.0136C120.571 21.2887 119.994 20.9263 119.199 20.9263Z" fill="#F3EEE3"/>
<path d="M135.982 17.8039C136.474 17.8039 136.909 17.8782 137.288 18.0269L136.578 22.1529C136.18 22.0414 135.783 21.9857 135.386 21.9857C134.61 21.9857 134.013 22.283 133.597 22.8778C133.181 23.454 132.859 24.3182 132.632 25.4705V33.0257H128.26V18.222H132.092L132.433 20.8148C132.774 19.8483 133.247 19.1049 133.853 18.5845C134.458 18.0641 135.168 17.8039 135.982 17.8039Z" fill="#F3EEE3"/>
<path d="M143.028 18.222V33.0257H138.656V18.222H143.028Z" fill="#F3EEE3"/>
<path d="M157.102 28.9275C157.102 29.4293 157.169 29.801 157.301 30.0426C157.434 30.2843 157.661 30.4701 157.982 30.6002L157.074 33.416C156.203 33.3416 155.494 33.1465 154.945 32.8305C154.396 32.5146 153.97 32.022 153.667 31.3529C152.74 32.7841 151.387 33.4996 149.608 33.4996C148.245 33.4996 147.157 33.0814 146.343 32.2451C145.548 31.3901 145.151 30.2657 145.151 28.8717C145.151 27.2548 145.7 26.0188 146.798 25.1639C147.914 24.3089 149.523 23.8814 151.623 23.8814H152.816V23.1845C152.816 22.3109 152.655 21.7069 152.333 21.3723C152.011 21.0192 151.444 20.8426 150.63 20.8426C149.703 20.8426 148.52 21.0936 147.081 21.5954L146.088 18.8354C146.921 18.4822 147.81 18.2127 148.756 18.0269C149.703 17.841 150.583 17.7481 151.396 17.7481C153.346 17.7481 154.784 18.1756 155.711 19.0305C156.639 19.8855 157.102 21.1865 157.102 22.9336V28.9275ZM150.914 30.4329C151.311 30.4329 151.671 30.3121 151.993 30.0705C152.333 29.8289 152.608 29.4851 152.816 29.039V26.279H152.021C151.131 26.279 150.478 26.4649 150.062 26.8366C149.646 27.1897 149.438 27.7473 149.438 28.5093C149.438 29.1412 149.561 29.6245 149.807 29.959C150.072 30.275 150.441 30.4329 150.914 30.4329Z" fill="#F3EEE3"/>
<path d="M163.669 33.4996C162.42 33.4996 161.445 33.1465 160.745 32.4402C160.044 31.734 159.694 30.7489 159.694 29.4851V12.3396L164.066 11.8936V29.2899C164.066 29.8289 164.293 30.0984 164.747 30.0984C164.937 30.0984 165.145 30.0612 165.372 29.9869L166.195 32.9699C165.438 33.323 164.596 33.4996 163.669 33.4996Z" fill="#F3EEE3"/>
<path d="M178.131 13.7057V33.0257H173.589V13.7057H178.131Z" fill="#F3EEE3"/>
<path d="M181.213 33.0257V13.7057H192L191.517 16.8839H185.755V22.1251H190.808V25.3033H185.755V33.0257H181.213Z" fill="#F3EEE3"/>
<path d="M140.349 16.508C140.205 14.5331 140.53 14.22 140.771 14.22H140.831C141.433 14.22 141.252 15.9059 141.252 16.508C141.734 16.5682 143.721 15.7253 143.661 13.3771C143.601 11.0289 140.951 8.74084 140.59 8.5C140.59 8.56021 140.108 9.71927 139.265 10.6676C138.141 11.932 138.001 12.9837 138.001 13.3771C138.001 13.8625 137.881 15.8457 140.349 16.508Z" fill="#F3EEE3"/>
</svg>
