<svg width="11" height="21" viewBox="0 0 11 21" fill="none" xmlns="http://www.w3.org/2000/svg">
<path d="M7.46536 10.5001L0.890106 18.0321C0.638837 18.3193 0.5 18.6905 0.5 19.0751C0.5 19.4597 0.638837 19.8309 0.890106 20.1181C1.42636 20.7341 2.26098 20.7341 2.79861 20.1181L10.2841 11.5431C10.5261 11.2659 10.6746 10.8431 10.6746 10.5001C10.6746 10.0787 10.5522 9.76369 10.2841 9.45709L2.79861 0.882084C2.52361 0.567083 2.23486 0.420084 1.84436 0.420084C1.45386 0.420084 1.16373 0.567083 0.890106 0.882084C0.638837 1.16922 0.5 1.5405 0.5 1.92508C0.5 2.30966 0.638837 2.68094 0.890106 2.96808L7.46536 10.5001Z" fill="#2E5E4E"/>
</svg>
