<svg width="12" height="21" viewBox="0 0 12 21" fill="none" xmlns="http://www.w3.org/2000/svg">
<g clip-path="url(#clip0_75_671)">
<path d="M4.53464 10.5001L11.1099 18.0321C11.3612 18.3193 11.5 18.6905 11.5 19.0751C11.5 19.4597 11.3612 19.8309 11.1099 20.1181C10.5736 20.7341 9.73902 20.7341 9.20139 20.1181L1.71589 11.5431C1.47389 11.2659 1.32539 10.8431 1.32539 10.5001C1.32539 10.0787 1.44777 9.76369 1.71589 9.45709L9.20139 0.882084C9.47639 0.567083 9.76514 0.420084 10.1556 0.420084C10.5461 0.420084 10.8363 0.567083 11.1099 0.882084C11.3612 1.16922 11.5 1.5405 11.5 1.92508C11.5 2.30966 11.3612 2.68094 11.1099 2.96808L4.53464 10.5001Z" fill="#2E5E4E"/>
</g>
<defs>
<clipPath id="clip0_75_671">
<rect width="21" height="11" fill="white" transform="matrix(0 -1 -1 0 11.5 21)"/>
</clipPath>
</defs>
</svg>
