<svg width="22" height="22" viewBox="0 0 22 22" fill="none" xmlns="http://www.w3.org/2000/svg">
<path d="M11 0C4.92646 0 0 4.92646 0 11C0 17.0735 4.92646 22 11 22C17.0735 22 22 17.0735 22 11C22 4.92646 17.0735 0 11 0ZM15.3297 5.54973H14.0434C12.777 5.54973 12.3791 6.33876 12.3791 7.14768V9.06389H15.2104L14.7595 12.0145H12.3791V19.1555H9.18324V12.0145H6.59072V9.06389H9.18324V6.81615C9.18324 4.25678 10.7083 2.84448 13.0422 2.84448C14.1627 2.84448 15.3297 3.0434 15.3297 3.0434V5.55636V5.54973Z" fill="#B08D57"/>
</svg>
